<svg id="e5fqtBcPODr1" xmlns="http://www.w3.org/2000/svg" xmlns:xlink="http://www.w3.org/1999/xlink" viewBox="0 0 100 100" shape-rendering="geometricPrecision" text-rendering="geometricPrecision" width="100" height="100"><defs><linearGradient id="e5fqtBcPODr3-fill" x1="0" y1="0" x2="0.906308" y2="0.422618" spreadMethod="pad" gradientUnits="objectBoundingBox" gradientTransform="translate(0 0)"><stop id="e5fqtBcPODr3-fill-0" offset="0%" stop-color="#ffe468"/><stop id="e5fqtBcPODr3-fill-1" offset="100%" stop-color="#9dcf5e"/></linearGradient></defs><g transform="translate(-.531-.755499)"><path d="M79.177,51h-57.292c0,16,19.736,5.824,22.635,13.271c1.477,3.794,2.148,13.814-.061,22.445C42.717,93.527,47,97.001,51,97.001c3,0,7.814-3.474,6.072-10.284-2.209-8.631-2.007-18.651-.529-22.445C59.441,56.824,79.177,67,79.177,51ZM50.933,93.263c-1.317751,0-2.386-1.068249-2.386-2.386s1.068249-2.386,2.386-2.386s2.386,1.068249,2.386,2.386-1.068249,2.386-2.386,2.386ZM79.041,41C77.889,18,74.354,8.123,69.095,5.614c1.78,2.913,1.812,5.413.081,6.748-3.554-8.767-20.31-6.87-36.777-7.197C32.956,5.936,33,8,33,8s-.46-2.147-1.512-2.856c-3.257-.082-6.493-.259-9.603-.634c3.946,4.323.088,25.49.088,36.49h57.068ZM22,43h57v6h-57v-6Z" fill="url(#e5fqtBcPODr3-fill)"/></g></svg>
