<svg id="efXsoZ8UbK61" xmlns="http://www.w3.org/2000/svg" xmlns:xlink="http://www.w3.org/1999/xlink" viewBox="0 0 300 95" shape-rendering="geometricPrecision" text-rendering="geometricPrecision"><defs><linearGradient id="efXsoZ8UbK68-fill" x1="0" y1="0" x2="0.906308" y2="0.422618" spreadMethod="pad" gradientUnits="objectBoundingBox" gradientTransform="translate(0 0)"><stop id="efXsoZ8UbK68-fill-0" offset="0%" stop-color="#FFE468"/><stop id="efXsoZ8UbK68-fill-1" offset="100%" stop-color="#9dcf5e"/></linearGradient></defs><rect width="300" height="296.546019" rx="0" ry="0" transform="matrix(1 0 0 0.320355 0 102.5)" fill="rgba(0,0,0,0)"/><g transform="translate(-.000095-102.500423)"><g transform="matrix(2.42614 0 0 2.42614 96.6967 126.523)"><path d="M2.45,6.26h2.83c.75,0,1.83.46,1.83,1.34c0,.93-1.08,1.18-1.83,1.18h-2.83v-2.52Zm0-3.88h2.83c1.17,0,1.54.76,1.54,1.2c0,.56-.38,1.05-1.54,1.05h-2.83v-2.25ZM5.28,0.7c-1.56,0-3.11,0-4.65,0v9.8c1.55,0,3.09,0,4.65,0c2.03,0,3.67-.7,3.67-2.88c0-.62-.42-1.84-1.57-2.19.91-.4,1.27-1.13,1.27-1.89c0-1.97-1.44-2.84-3.37-2.84Zm4.84,2.9v6.9h1.71v-3.64c0-1.27.83-1.75,1.72-1.75.56,0,.88.15,1.23.45l.77-1.49c-.37-.37-1.06-.65-1.77-.65-.7,0-1.42.12-1.95.98l-.13-.8h-1.58Zm6.26,0v3.62c0,2.15,1.2,3.39,2.86,3.39.96,0,1.62-.33,2.33-1.03l.12.93h1.52v-6.91h-1.69v3.53c0,1.05-.72,1.93-1.77,1.93-1.09,0-1.66-.8-1.66-1.85v-3.61h-1.71Zm13.8.71c-.79-.7-1.61-.91-2.68-.91-1.26,0-2.92.56-2.92,2.16c0,1.57,1.56,2.04,2.86,2.14.98.06,1.37.25,1.37.73c0,.5-.6.84-1.24.82-.77-.01-1.89-.42-2.38-.96l-.84,1.22c1,1.05,2.1,1.23,3.19,1.23c1.97,0,2.97-1.05,2.97-2.27c0-1.83-1.66-2.13-2.96-2.21-.88-.06-1.29-.31-1.29-.76c0-.43.45-.68,1.26-.68.66,0,1.22.15,1.71.61l.95-1.12ZM31.6,0.7v9.8h1.71v-3.53c0-1.03.7-1.89,1.7-1.89.91,0,1.57.53,1.57,1.79v3.63h1.71v-3.64c0-2.03-.87-3.36-2.83-3.36-.78,0-1.54.24-2.15,1.04v-3.84h-1.71ZM50.2,2.31c-.74-1.51-2.32-1.95-3.85-1.95-1.8.02-3.79.84-3.79,2.86c0,2.2,1.85,2.73,3.85,2.97c1.3.14,2.27.52,2.27,1.44c0,1.06-1.09,1.47-2.26,1.47-1.19,0-2.32-.48-2.75-1.55l-1.54.79c.72,1.8,2.26,2.41,4.27,2.41c2.18,0,4.11-.94,4.11-3.12c0-2.34-1.9-2.87-3.95-3.12-1.17-.14-2.18-.38-2.18-1.23c0-.73.66-1.31,2.03-1.31c1.06,0,1.99.54,2.32,1.1l1.47-.76Zm1.73-1.6v9.79h1.7v-3.12l2.71,3.12h2.05v-.13l-3.2-3.52L58,3.7v-.1h-2.04L53.63,6.37v-5.66h-1.7Zm8.96,2.86v6.93h-1.71v-6.93h1.71ZM59.02,1.65c0,1.33,2.02,1.33,2.02,0s-2.02-1.33-2.02,0Zm3.41-.94v9.79h1.69v-9.79h-1.69Zm3.19,0v9.79h1.69v-9.79h-1.69Z" fill="#fff"/></g><g transform="matrix(.789381 0 0 0.789381 22.7244 109.935)"><g><path d="M79.177,51h-57.292c0,16,19.736,5.824,22.635,13.271c1.477,3.794,2.148,13.814-.061,22.445C42.717,93.527,47,97.001,51,97.001c3,0,7.814-3.474,6.072-10.284-2.209-8.631-2.007-18.651-.529-22.445C59.441,56.824,79.177,67,79.177,51ZM50.933,93.263c-1.317751,0-2.386-1.068249-2.386-2.386s1.068249-2.386,2.386-2.386s2.386,1.068249,2.386,2.386-1.068249,2.386-2.386,2.386ZM79.041,41C77.889,18,74.354,8.123,69.095,5.614c1.78,2.913,1.812,5.413.081,6.748-3.554-8.767-20.31-6.87-36.777-7.197C32.956,5.936,33,8,33,8s-.46-2.147-1.512-2.856c-3.257-.082-6.493-.259-9.603-.634c3.946,4.323.088,25.49.088,36.49h57.068ZM22,43h57v6h-57v-6Z" fill="url(#efXsoZ8UbK68-fill)"/></g></g><g transform="matrix(2.37555 0 0 2.37555 96.5623 153.315)"><path d="M3.51,4.44c.19-.02.27-.1.27-.25v-.28h-1.18-.71-1.19v.28c0,.15.1.23.28.25h.14c.07,0,.17.01.31.01s.29.02.46.02v8.79c-.17,0-.32.01-.46.01s-.24.02-.31.02h-.14c-.18.01-.28.09-.28.25v.28h1.19.71h1.18v-.28c0-.16-.08-.24-.27-.25h-.14c-.07,0-.16-.02-.3-.02s-.3-.01-.47-.01v-8.79c.17,0,.33-.02.47-.02s.23-.01.3-.01h.14Zm17.45-.52h-.63-1.22v.27c0,.15.1.23.28.25h.14c.07,0,.18.01.32.01s.31.02.48.02v7.75c0,.13,0,.27.01.41L13.93,4.05c-.04-.06-.07-.1-.11-.12-.04-.01-.09-.02-.16-.02h-.35-1.19v.28c0,.15.1.23.28.25h.14c.07,0,.17.01.31.01s.3.02.46.02v8.79c-.16,0-.32.01-.46.01s-.24.02-.31.02h-.14c-.18.01-.28.09-.28.25v.28h1.19.62h1.22v-.28c0-.16-.1-.24-.28-.25h-.14c-.07,0-.2-.02-.34-.02s-.29-.01-.46-.01v-7.77c0-.13,0-.27-.01-.41l6.44,8.6c.07.1.14.14.25.14h.35v-9.35c.17,0,.31-.02.45-.02s.25-.01.32-.01h.12c.19-.02.28-.1.28-.25v-.27h-1.17ZM39.17,6.8c-.22-.61-.54-1.12-.96-1.55s-.91-.77-1.49-.99c-.57-.23-1.23-.34-1.93-.34h-3.43-1.19v.27c0,.15.1.23.28.25h.14c.07,0,.17.01.31.01s.29.02.46.02v8.79c-.17,0-.32.01-.46.01s-.24.02-.31.02h-.14c-.18.01-.28.09-.28.25v.28h1.19h3.43c.7,0,1.36-.11,1.93-.34.58-.22,1.07-.56,1.49-.99.42-.44.74-.95.96-1.57.23-.62.35-1.29.35-2.06c0-.75-.12-1.44-.35-2.06Zm-.68,3.92c-.2.55-.45,1-.8,1.38-.35.37-.77.65-1.26.85s-1.04.29-1.64.29h-2.72v-8.75h2.72c.6,0,1.15.1,1.64.3.49.19.91.47,1.26.85s.6.83.8,1.37c.19.55.29,1.17.29,1.85c0,.7-.1,1.32-.29,1.86ZM50.62,4.44c.19-.02.27-.1.27-.25v-.28h-1.18-.71-1.19v.28c0,.15.1.23.28.25h.14c.07,0,.17.01.31.01s.29.02.46.02v8.79c-.17,0-.32.01-.46.01s-.24.02-.31.02h-.14c-.18.01-.28.09-.28.25v.28h1.19.71h1.18v-.28c0-.16-.08-.24-.27-.25h-.14c-.07,0-.16-.02-.3-.02s-.3-.01-.47-.01v-8.79c.17,0,.33-.02.47-.02s.23-.01.3-.01h.14Zm17.91,8.78l-.46-.05-3.78-9.26h-.72l-3.79,9.26-.45.05c-.18.01-.26.11-.26.28v.32h.44.3.25.1h1.31v-.32c0-.19-.11-.27-.32-.28-.01,0-.04-.02-.08-.02s-.1-.01-.2-.01-.22,0-.36-.02l.98-2.42.07-.18h4.73l.07.18.98,2.42c-.14.02-.25.02-.35.02s-.17.01-.21.01-.07.02-.08.02c-.21.01-.33.09-.33.28v.32h1.32.1.26.28.47v-.32c0-.17-.09-.27-.27-.28Zm-4.8-8c.03-.08.07-.18.1-.28.02-.1.07-.19.09-.31.03.12.07.21.1.31s.07.18.1.27l1.96,4.83h-4.3l1.95-4.82Z" fill="#fff"/></g></g></svg>
